<?xml version="1.0" standalone="no"?>
<!DOCTYPE svg PUBLIC "-//W3C//DTD SVG 20010904//EN"
 "http://www.w3.org/TR/2001/REC-SVG-20010904/DTD/svg10.dtd">
<svg version="1.0" xmlns="http://www.w3.org/2000/svg"
 width="632.000000pt" height="632.000000pt" viewBox="0 0 632.000000 632.000000"
 preserveAspectRatio="xMidYMid meet">
<metadata>
Created by potrace 1.14, written by Peter Selinger 2001-2017
</metadata>
<g transform="translate(0.000000,632.000000) scale(0.100000,-0.100000)"
fill="#000000" stroke="none">
<path d="M3067 6314 c-1 -1 -54 -5 -118 -8 -63 -4 -126 -8 -140 -11 -13 -2
-45 -6 -71 -9 -40 -6 -186 -32 -283 -51 -60 -12 -214 -56 -311 -89 -454 -153
-888 -425 -1226 -768 -109 -111 -261 -289 -321 -377 -154 -228 -242 -381 -326
-575 -45 -103 -135 -352 -146 -403 -2 -10 -13 -54 -24 -98 -22 -90 -48 -215
-56 -272 -3 -21 -8 -49 -10 -63 -2 -14 -7 -56 -10 -95 -4 -38 -8 -81 -11 -95
-6 -35 -6 -415 0 -470 3 -25 8 -76 11 -113 4 -38 8 -78 11 -90 2 -12 7 -42 10
-67 3 -25 7 -52 9 -60 2 -8 7 -31 10 -50 11 -67 47 -205 82 -320 225 -738 727
-1376 1393 -1774 398 -238 873 -395 1300 -432 41 -3 91 -8 110 -10 133 -13
529 1 635 23 11 2 40 6 63 8 24 3 63 10 85 15 23 5 58 12 77 15 39 7 178 43
286 74 274 79 661 272 909 453 304 223 575 504 769 798 38 58 78 117 87 132
36 53 149 276 197 388 72 169 153 416 176 540 2 14 11 57 19 95 17 77 33 185
42 285 3 36 8 81 11 100 6 46 6 383 -1 440 -3 25 -7 72 -9 105 -9 115 -45 319
-76 435 -7 25 -14 52 -15 60 -27 121 -136 410 -211 563 -35 71 -103 194 -169
305 -44 74 -161 232 -258 350 -73 88 -261 279 -330 335 -21 18 -50 42 -63 54
-152 139 -482 344 -723 449 -69 30 -135 59 -146 64 -140 63 -545 166 -725 185
-36 4 -78 9 -95 11 -102 11 -410 25 -418 18z"/>
</g>
</svg>
